<?xml version="1.0" standalone="no"?>
<!DOCTYPE svg PUBLIC "-//W3C//DTD SVG 20010904//EN"
 "http://www.w3.org/TR/2001/REC-SVG-20010904/DTD/svg10.dtd">
<svg version="1.0" xmlns="http://www.w3.org/2000/svg"
 width="375.000000pt" height="375.000000pt" viewBox="0 0 375.000000 375.000000"
 preserveAspectRatio="xMidYMid meet">
<metadata>
Created by potrace 1.16, written by Peter Selinger 2001-2019
</metadata>
<g transform="translate(0.000000,375.000000) scale(0.100000,-0.100000)"
fill="#000000" stroke="none">
<path d="M1616 3673 c-4 -4 -23 -8 -43 -10 -20 -1 -46 -11 -57 -21 -30 -26
-109 -77 -121 -77 -15 -1 -66 -35 -99 -67 -22 -21 -32 -25 -38 -16 -6 10 -8
10 -8 0 0 -18 -50 -83 -60 -77 -4 2 -17 -10 -30 -27 -16 -22 -24 -27 -30 -17
-6 8 -12 -1 -19 -27 -6 -21 -18 -48 -26 -58 -8 -11 -15 -27 -15 -36 0 -9 -9
-25 -21 -36 -18 -16 -59 -92 -59 -109 0 -21 -56 -88 -81 -97 -16 -5 -29 -16
-29 -24 0 -8 -4 -14 -8 -14 -5 0 -14 -11 -20 -25 -16 -35 -15 -43 3 -19 9 12
14 14 15 6 0 -7 5 -10 10 -7 6 3 10 4 10 2 0 -13 -35 -85 -56 -116 -13 -20
-23 -45 -23 -56 1 -17 2 -17 6 -2 5 18 23 24 23 7 0 -6 -9 -30 -20 -52 -19
-40 -19 -44 -4 -127 9 -47 25 -102 35 -122 11 -20 19 -48 19 -62 0 -14 9 -41
19 -59 11 -18 25 -52 32 -75 7 -24 16 -43 21 -43 4 0 8 -11 8 -24 0 -14 7 -31
15 -40 30 -30 37 -67 24 -133 -11 -57 -10 -72 15 -190 16 -70 35 -148 42 -172
8 -25 14 -55 14 -67 0 -12 6 -24 13 -27 9 -3 12 37 13 182 2 200 27 551 45
616 6 22 17 47 24 55 7 8 30 65 50 125 20 61 40 114 46 120 5 5 9 20 9 32 0
27 8 39 68 100 23 23 38 43 32 43 -5 0 -10 7 -10 15 0 8 6 15 13 15 8 0 22 9
31 19 10 11 28 21 40 23 13 2 20 9 18 20 -3 20 30 33 76 29 23 -2 33 1 31 11
-4 35 3 47 31 53 17 4 36 12 43 18 18 18 65 37 90 37 13 0 27 4 32 9 16 14 87
28 130 25 79 -5 250 -23 275 -29 14 -3 44 -7 67 -9 51 -4 133 -53 151 -89 7
-15 22 -32 33 -38 14 -7 19 -17 16 -30 -4 -14 0 -19 16 -19 11 0 18 -3 15 -6
-4 -3 2 -14 13 -25 11 -11 17 -24 14 -29 -7 -12 133 -170 150 -170 7 0 22 -9
34 -19 12 -11 31 -25 42 -33 14 -9 25 -35 35 -83 8 -38 22 -80 30 -93 14 -22
39 -138 64 -302 6 -36 13 -159 17 -274 6 -216 13 -233 32 -81 6 48 12 90 15
92 7 7 56 -9 56 -18 0 -5 5 -9 10 -9 6 0 10 16 10 35 0 19 4 35 9 35 16 0 20
59 6 93 -14 34 -9 127 9 156 12 18 35 114 48 196 21 132 8 288 -27 342 -12 17
-20 46 -20 74 0 42 -5 53 -50 102 -27 30 -56 55 -62 56 -7 1 -13 5 -13 9 0 5
-16 27 -35 49 -19 23 -31 43 -25 45 5 1 -9 23 -30 47 -22 25 -40 49 -40 54 0
12 -59 67 -72 67 -4 0 -22 28 -39 63 -72 141 -157 221 -304 284 -91 40 -123
49 -222 63 -70 10 -83 15 -83 31 0 12 -5 16 -15 13 -8 -4 -15 -2 -15 3 0 13
-281 22 -313 10 -9 -3 -28 -2 -41 3 -13 5 -27 6 -30 3z"/>
<path d="M1361 2474 c-12 -15 -21 -30 -21 -34 0 -4 -13 -13 -28 -19 -28 -12
-80 -86 -68 -98 3 -3 23 6 44 21 21 14 44 26 51 26 7 0 11 6 8 14 -3 8 2 16
14 19 16 4 19 1 17 -15 -4 -26 19 -36 25 -11 3 13 5 14 6 3 1 -11 21 -19 68
-28 85 -16 129 -36 176 -81 38 -36 52 -79 21 -67 -9 3 -28 9 -42 12 l-27 5 28
-16 c15 -9 27 -18 27 -21 0 -3 -33 -3 -72 1 -40 4 -94 7 -120 6 -27 -1 -48 2
-48 7 0 10 47 22 86 22 12 0 26 5 30 11 5 9 -12 10 -64 5 -95 -9 -132 -21
-162 -51 -14 -14 -40 -37 -58 -51 -31 -25 -32 -27 -16 -45 14 -15 31 -19 87
-19 69 0 137 -16 137 -32 0 -4 -3 -7 -7 -7 -5 1 -23 1 -41 0 -51 -2 -39 -33
18 -48 73 -19 138 -16 176 8 43 26 43 36 -1 31 -20 -2 -35 0 -35 6 0 6 -3 17
-6 26 -5 12 0 16 17 16 29 0 43 9 52 33 7 18 37 24 37 8 0 -19 32 -41 61 -41
32 0 34 3 20 29 -11 20 2 50 13 32 4 -6 17 -11 28 -11 12 0 29 -7 39 -16 27
-25 36 -11 44 71 11 124 5 133 -138 205 -67 34 -128 64 -137 65 -8 2 -42 9
-75 16 -33 6 -72 18 -87 25 -38 20 -54 17 -77 -12z"/>
<path d="M2543 2453 c-13 -2 -23 -8 -23 -13 0 -5 -15 -8 -32 -8 -18 1 -40 -1
-48 -4 -8 -3 -42 -13 -75 -23 -33 -9 -81 -30 -108 -46 -26 -16 -56 -29 -66
-29 -27 0 -58 -44 -76 -108 -9 -33 28 -88 70 -102 30 -10 33 -14 25 -30 -6
-10 -10 -21 -10 -25 0 -3 48 -6 108 -5 143 2 144 1 137 -10 -7 -11 8 -14 18
-4 6 7 109 18 195 22 25 2 32 6 32 22 0 23 -20 35 -75 45 -22 4 -46 12 -53 18
-7 6 -46 12 -85 15 -40 2 -79 8 -87 13 -13 7 -12 8 3 9 9 0 17 5 17 11 0 8
-14 10 -43 6 -35 -5 -45 -3 -55 13 -7 11 -8 20 -3 20 5 0 13 9 16 20 4 12 25
33 48 47 36 23 54 27 120 27 53 1 77 5 77 13 0 6 -4 15 -10 18 -13 8 -13 35 0
35 5 0 7 -8 4 -17 -3 -10 1 -7 9 5 13 22 15 23 30 7 28 -28 20 7 -8 38 -14 15
-27 26 -28 26 -1 -1 -12 -4 -24 -6z"/>
<path d="M1633 1622 c6 -76 46 -107 109 -83 55 20 78 22 78 6 0 -19 16 -20 27
-1 7 13 17 12 69 -7 l61 -21 54 23 c47 21 63 23 131 17 69 -6 80 -4 98 14 24
24 26 40 3 40 -9 0 -24 7 -34 16 -32 29 -102 30 -157 1 -61 -32 -133 -28 -173
10 -25 23 -26 23 -84 8 -32 -8 -66 -22 -75 -30 -9 -8 -23 -15 -31 -15 -18 0
-53 29 -68 55 -10 17 -11 11 -8 -33z"/>
<path d="M3550 1599 c-63 -39 -171 -80 -261 -100 -103 -22 -129 -35 -129 -65
0 -42 22 -48 118 -34 48 7 113 12 145 12 52 -1 62 -5 98 -36 43 -39 65 -44
108 -21 35 18 47 66 31 126 -7 23 -9 58 -5 76 12 63 -38 83 -105 42z"/>
<path d="M1456 1385 c-22 -21 -25 -28 -16 -45 6 -11 8 -25 5 -30 -11 -18 15
-20 33 -3 19 19 52 27 52 13 0 -5 -4 -20 -10 -34 -8 -23 -7 -26 18 -32 45 -11
99 -42 120 -69 l20 -26 16 23 c9 12 16 28 16 34 0 7 6 14 13 17 9 3 9 7 0 18
-10 12 -8 15 8 16 15 1 19 -3 14 -18 -4 -13 -2 -19 8 -19 8 0 17 13 21 30 6
34 30 48 55 33 11 -7 20 -5 32 11 12 15 26 19 55 17 49 -3 60 -3 112 5 27 4
48 2 57 -6 9 -8 20 -8 31 -2 23 13 52 4 59 -18 4 -13 15 -18 33 -17 23 2 27
-2 26 -23 -2 -29 13 -42 39 -34 11 4 17 0 17 -11 0 -14 6 -12 31 10 27 22 37
25 75 19 40 -6 43 -4 48 17 12 61 -19 109 -71 109 -27 0 -30 -3 -25 -25 6 -33
-15 -33 -128 0 -61 18 -108 25 -165 25 -44 0 -105 2 -135 6 -102 11 -135 8
-181 -18 -24 -13 -59 -30 -76 -36 -36 -12 -37 -11 -33 41 l2 28 -33 -16 c-37
-20 -79 -26 -79 -13 0 4 -11 1 -24 -7 l-24 -16 8 35 c4 20 7 36 5 36 -1 0 -14
-11 -29 -25z"/>
<path d="M0 910 l0 -140 26 -10 c35 -14 200 -13 284 1 l69 12 26 66 c49 130
34 153 -115 175 -145 21 -258 36 -275 36 -13 0 -15 -24 -15 -140z"/>
<path d="M1415 758 c-2 -7 -6 -24 -8 -38 -1 -14 -8 -34 -15 -45 -11 -20 -11
-19 -12 3 0 12 -4 22 -9 22 -5 0 -12 12 -16 28 l-7 27 -20 -39 c-17 -34 -19
-49 -13 -100 5 -34 9 -115 10 -181 1 -66 2 -130 3 -142 3 -33 22 -28 22 5 1
38 40 64 91 61 37 -3 42 -1 54 26 9 19 14 24 14 13 1 -23 71 -26 71 -4 0 20
48 26 79 10 14 -8 34 -11 44 -8 11 3 17 0 17 -10 0 -23 -17 -28 -34 -10 -17
16 -46 13 -46 -6 0 -9 5 -11 40 -14 8 -1 14 -9 14 -18 -1 -14 2 -15 25 -5 14
6 30 14 35 19 5 4 16 2 24 -4 11 -10 10 -15 -10 -31 -13 -10 -17 -16 -10 -12
7 4 19 1 27 -5 19 -16 45 -6 46 17 0 14 3 12 10 -5 5 -13 6 -28 3 -33 -3 -6 5
-7 21 -3 17 4 30 2 35 -6 5 -8 13 -9 26 -2 11 5 30 15 44 21 57 27 90 48 179
115 51 39 106 80 122 92 134 97 262 234 219 234 -5 0 -10 5 -10 11 0 5 5 7 10
4 6 -3 10 -1 10 4 0 16 -1 15 -102 -38 -51 -27 -113 -55 -138 -62 -25 -7 -49
-16 -55 -20 -22 -15 -208 -42 -224 -32 -9 6 -31 14 -48 17 -17 4 -37 13 -43
21 -6 8 -18 11 -26 8 -9 -3 -14 1 -14 13 0 13 -3 15 -8 7 -6 -9 -28 -12 -73
-9 -35 3 -66 5 -69 7 -3 1 -9 3 -15 4 -72 11 -96 18 -150 49 -16 9 -42 22 -57
27 -16 6 -28 15 -28 20 0 14 -30 11 -35 -3z"/>
</g>
</svg>
